# xmcd
#
# Track frame offsets: 
#        150
#        16955
#        30877
#        47402
#        62190
#        79695
#        94307
#        110977
#        124242
#        137950
#
# Disc length: 2046 seconds
#
# Revision: 8
# Processed by: cddbd v1.5.2PL0 Copyright (c) Steve Scherf et al.
# Submitted via: ExactAudioCopyFreeDBPlugin 1.0
#
DISCID=8407fc0a
DTITLE=Dolly Parton - Something special
DYEAR=1995
DGENRE=Country
TTITLE0=Crippled bird
TTITLE1=Something special
TTITLE2=Change
TTITLE3=I will always love you (with special guest Vince Gill)
TTITLE4=Green-eyed boy
TTITLE5=Speakin' of the devil
TTITLE6=Jolene
TTITLE7=No good way of saying good-bye
TTITLE8=The seeker
TTITLE9=Teach me to trust
EXTD=
EXTT0=
EXTT1=
EXTT2=
EXTT3=
EXTT4=
EXTT5=
EXTT6=
EXTT7=
EXTT8=
EXTT9=
PLAYORDER=
